{
	"asset":{
		"generator":"Khronos glTF Blender I/O v4.4.56",
		"version":"2.0"
	},
	"extensionsUsed":[
		"KHR_materials_specular"
	],
	"scene":0,
	"scenes":[
		{
			"name":"Scene",
			"nodes":[
				0,
				1,
				2,
				3
			]
		}
	],
	"nodes":[
		{
			"mesh":0,
			"name":"Plane.002",
			"rotation":[
				0.20195037126541138,
				0.08232707530260086,
				-0.3684108555316925,
				0.903721034526825
			],
			"scale":[
				1,
				1,
				2
			],
			"translation":[
				-5.648324489593506,
				2.689974784851074,
				5.3471360206604
			]
		},
		{
			"camera":0,
			"name":"Camera",
			"translation":[
				0,
				3,
				30
			]
		},
		{
			"mesh":1,
			"name":"moai",
			"scale":[
				0.3106760084629059,
				0.3106760084629059,
				0.3106760084629059
			]
		},
		{
			"mesh":2,
			"name":"Cube",
			"rotation":[
				0.10893382877111435,
				0.21291609108448029,
				0,
				0.9709789752960205
			],
			"translation":[
				6.377274513244629,
				3.7271666526794434,
				0
			]
		}
	],
	"cameras":[
		{
			"name":"Camera",
			"perspective":{
				"aspectRatio":1.3333333333333333,
				"yfov":0.5274237051253257,
				"zfar":100,
				"znear":0.10000000149011612
			},
			"type":"perspective"
		}
	],
	"materials":[
		{
			"alphaMode":"MASK",
			"doubleSided":true,
			"extensions":{
				"KHR_materials_specular":{
					"specularFactor":0
				}
			},
			"name":"Material.003",
			"pbrMetallicRoughness":{
				"baseColorTexture":{
					"index":0
				},
				"metallicFactor":0
			}
		},
		{
			"alphaMode":"BLEND",
			"doubleSided":true,
			"extensions":{
				"KHR_materials_specular":{
					"specularFactor":0.06571224331855774
				}
			},
			"name":"PSX Low poly Moai",
			"normalTexture":{
				"index":1
			},
			"pbrMetallicRoughness":{
				"baseColorTexture":{
					"index":2
				},
				"metallicFactor":0.21259842813014984,
				"roughnessFactor":0.4488189220428467
			}
		}
	],
	"meshes":[
		{
			"name":"Plane.001",
			"primitives":[
				{
					"attributes":{
						"POSITION":0,
						"NORMAL":1,
						"TEXCOORD_0":2
					},
					"indices":3,
					"material":0
				}
			]
		},
		{
			"name":"moai",
			"primitives":[
				{
					"attributes":{
						"POSITION":4,
						"NORMAL":5,
						"TEXCOORD_0":6
					},
					"indices":7,
					"material":1
				}
			]
		},
		{
			"name":"Cube.001",
			"primitives":[
				{
					"attributes":{
						"POSITION":8,
						"NORMAL":9,
						"TEXCOORD_0":10
					},
					"indices":11
				}
			]
		}
	],
	"textures":[
		{
			"sampler":0,
			"source":0
		},
		{
			"sampler":1,
			"source":1
		},
		{
			"sampler":1,
			"source":2
		}
	],
	"images":[
		{
			"mimeType":"image/png",
			"name":"branches_green",
			"uri":"branches_green.png"
		},
		{
			"mimeType":"image/png",
			"name":"Normal",
			"uri":"Normal.png"
		},
		{
			"mimeType":"image/png",
			"name":"Final",
			"uri":"Final.png"
		}
	],
	"accessors":[
		{
			"bufferView":0,
			"componentType":5126,
			"count":162,
			"max":[
				1.5883499383926392,
				2.5930888652801514,
				0.9031725525856018
			],
			"min":[
				-2.7216506004333496,
				-2.2252211570739746,
				-1.0222808122634888
			],
			"type":"VEC3"
		},
		{
			"bufferView":1,
			"componentType":5126,
			"count":162,
			"type":"VEC3"
		},
		{
			"bufferView":2,
			"componentType":5126,
			"count":162,
			"type":"VEC2"
		},
		{
			"bufferView":3,
			"componentType":5123,
			"count":303,
			"type":"SCALAR"
		},
		{
			"bufferView":4,
			"componentType":5126,
			"count":190,
			"max":[
				10.392888069152832,
				32.02852249145508,
				6.429988861083984
			],
			"min":[
				-12.664149284362793,
				0.872573733329773,
				-10.173016548156738
			],
			"type":"VEC3"
		},
		{
			"bufferView":5,
			"componentType":5126,
			"count":190,
			"type":"VEC3"
		},
		{
			"bufferView":6,
			"componentType":5126,
			"count":190,
			"type":"VEC2"
		},
		{
			"bufferView":7,
			"componentType":5123,
			"count":876,
			"type":"SCALAR"
		},
		{
			"bufferView":8,
			"componentType":5126,
			"count":24,
			"max":[
				1,
				1,
				1
			],
			"min":[
				-1,
				-1,
				-1
			],
			"type":"VEC3"
		},
		{
			"bufferView":9,
			"componentType":5126,
			"count":24,
			"type":"VEC3"
		},
		{
			"bufferView":10,
			"componentType":5126,
			"count":24,
			"type":"VEC2"
		},
		{
			"bufferView":11,
			"componentType":5123,
			"count":36,
			"type":"SCALAR"
		}
	],
	"bufferViews":[
		{
			"buffer":0,
			"byteLength":1944,
			"byteOffset":0,
			"target":34962
		},
		{
			"buffer":0,
			"byteLength":1944,
			"byteOffset":1944,
			"target":34962
		},
		{
			"buffer":0,
			"byteLength":1296,
			"byteOffset":3888,
			"target":34962
		},
		{
			"buffer":0,
			"byteLength":606,
			"byteOffset":5184,
			"target":34963
		},
		{
			"buffer":0,
			"byteLength":2280,
			"byteOffset":5792,
			"target":34962
		},
		{
			"buffer":0,
			"byteLength":2280,
			"byteOffset":8072,
			"target":34962
		},
		{
			"buffer":0,
			"byteLength":1520,
			"byteOffset":10352,
			"target":34962
		},
		{
			"buffer":0,
			"byteLength":1752,
			"byteOffset":11872,
			"target":34963
		},
		{
			"buffer":0,
			"byteLength":288,
			"byteOffset":13624,
			"target":34962
		},
		{
			"buffer":0,
			"byteLength":288,
			"byteOffset":13912,
			"target":34962
		},
		{
			"buffer":0,
			"byteLength":192,
			"byteOffset":14200,
			"target":34962
		},
		{
			"buffer":0,
			"byteLength":72,
			"byteOffset":14392,
			"target":34963
		}
	],
	"samplers":[
		{
			"magFilter":9728,
			"minFilter":9984
		},
		{
			"magFilter":9729,
			"minFilter":9987
		}
	],
	"buffers":[
		{
			"byteLength":14464,
			"uri":"landscape.bin"
		}
	]
}
